# xmcd
#
# Track frame offsets:
#	151
#	27117
#	44706
#	67339
#	89741
#	111906
#	130254
#	139111
#	161738
#
# Disc length: 2442 seconds
#
# Revision: 0
# Processed by: cddbd v1.5.2PL0 Copyright (c) Steve Scherf et al.
# Submitted via: EasyCDDAExtractor 11.0.3.1
#
DISCID=8a098809
DTITLE=Luke Wallin - Love and Possums
DYEAR=1900
DGENRE=Blues
TTITLE0=You Told Me Not To Sing The Blues
TTITLE1=New York Town
TTITLE2=Nothin' But A Sawmill
TTITLE3=Don't Say Possum
TTITLE4=Sassafras Spring
TTITLE5=You're Just Invisible
TTITLE6=Oh My Begonia
TTITLE7=Sunrise In The Pines
TTITLE8=Alligator Song
EXTD=
EXTT0=
EXTT1=
EXTT2=
EXTT3=
EXTT4=
EXTT5=
EXTT6=
EXTT7=
EXTT8=
PLAYORDER=
